<?xml version="1.0" encoding="utf-8"?>
<!-- Generator: Adobe Illustrator 19.0.0, SVG Export Plug-In . SVG Version: 6.00 Build 0)  -->
<svg version="1.1" id="Layer_1" xmlns="http://www.w3.org/2000/svg" xmlns:xlink="http://www.w3.org/1999/xlink" x="0px" y="0px"
	 width="100px" height="100px" viewBox="0 0 100 100" style="enable-background:new 0 0 100 100;" xml:space="preserve">
<style type="text/css">
	.st0{fill:#815126;}
	.st1{fill:none;stroke:#FEE5D2;stroke-width:7;stroke-linecap:round;stroke-miterlimit:10;}
	.st2{fill:#80ADA4;}
</style>
<g>
	<circle id="XMLID_3_" class="st0" cx="50" cy="50" r="34.7"/>
	<path id="XMLID_2_" class="st1" d="M50,77.2C35,77.2,22.8,65,22.8,50"/>
	<g>
		<g id="XMLID_20_">
			<path id="XMLID_21_" class="st2" d="M50,61c0.2,0,0.5,0,0.7,0l-0.4-2.1l2.3-0.4l0.4,2.1c1.8-0.5,3.4-1.4,4.7-2.7l-1.7-1.4
				l1.5-1.8l1.7,1.4c1-1.5,1.6-3.2,1.8-5.1h-2.2v-2.3h2.2c-0.2-1.9-0.9-3.6-1.9-5l-1.7,1.4l-1.5-1.8l1.6-1.4
				c-1.3-1.2-2.9-2.1-4.6-2.6l-0.4,2.1l-2.3-0.4l0.4-2c-0.2,0-0.4,0-0.7,0c-1.6,0-3.1,0.4-4.5,1l1,1.8l-2,1.1l-1-1.7
				c-1.4,1-2.6,2.4-3.4,4l1.9,0.7L41.3,48l-1.9-0.7c-0.2,0.9-0.3,1.7-0.3,2.7c0,0.9,0.1,1.8,0.3,2.6l1.9-0.7l0.8,2.2l-1.9,0.7
				c0.8,1.6,1.9,3,3.4,4.1l1-1.8l2,1.1L45.5,60C46.9,60.6,48.4,61,50,61z"/>
		</g>
	</g>
</g>
</svg>
