<?xml version="1.0" encoding="utf-8"?>
<!-- Generator: Adobe Illustrator 19.0.0, SVG Export Plug-In . SVG Version: 6.00 Build 0)  -->
<svg version="1.1" xmlns="http://www.w3.org/2000/svg" xmlns:xlink="http://www.w3.org/1999/xlink" x="0px" y="0px"
	 viewBox="0 0 595.3 504.3" style="enable-background:new 0 0 595.3 504.3;" xml:space="preserve">
<style type="text/css">
	.st0{enable-background:new    ;}
	.st1{clip-path:url(#XMLID_17_);}
	.st2{fill:#F1E3D0;}
</style>
<g id="Layer_3">
</g>
<g id="Layer_1">
</g>
<g id="Layer_2">
	<g>
		<g id="XMLID_42_">
			<g id="XMLID_55_" class="st0">
				<defs>
					<rect id="XMLID_76_" x="254.6" y="37.4" class="st0" width="89.9" height="91.1"/>
				</defs>
				<clipPath id="XMLID_17_">
					<use xlink:href="#XMLID_76_"  style="overflow:visible;"/>
				</clipPath>
				<g id="XMLID_57_" class="st1">
					<g id="XMLID_58_">
						<g id="XMLID_59_">
							<g id="XMLID_60_">
								<path id="XMLID_72_" class="st2" d="M279.4,87.4c-8.6,0-15.7-8.7-15.7-19.4c0-10.7,7-19.4,15.7-19.4
									c8.6,0,15.7,8.7,15.7,19.4C295.1,78.7,288,87.4,279.4,87.4 M319.8,87.4c-8.6,0-15.7-8.7-15.7-19.4c0-10.7,7-19.4,15.7-19.4
									c8.6,0,15.7,8.7,15.7,19.4C335.5,78.7,328.4,87.4,319.8,87.4 M319.8,37.4c-8.3,0-15.7,5.1-20.2,13c-4.5-7.8-11.9-13-20.2-13
									c-13.6,0-24.7,13.7-24.7,30.6s11.1,30.6,24.7,30.6c4.9,0,9.4-1.7,13.2-4.8v34.7h14V93.9c3.8,3,8.4,4.8,13.2,4.8
									c13.6,0,24.7-13.7,24.7-30.6S333.4,37.4,319.8,37.4"/>
							</g>
						</g>
					</g>
				</g>
			</g>
		</g>
	</g>
</g>
<g id="Layer_10">
</g>
<g id="Layer_4">
</g>
<g id="Layer_5">
</g>
<g id="Layer_6">
</g>
<g id="Layer_7">
</g>
<g id="Layer_8">
</g>
<g id="Layer_9">
</g>
</svg>
