<?xml version="1.0" encoding="utf-8"?>
<!-- Generator: Adobe Illustrator 19.0.0, SVG Export Plug-In . SVG Version: 6.00 Build 0)  -->
<svg version="1.1" xmlns="http://www.w3.org/2000/svg" xmlns:xlink="http://www.w3.org/1999/xlink" x="0px" y="0px"
	 viewBox="0 0 595.3 504.3" style="enable-background:new 0 0 595.3 504.3;" xml:space="preserve">
<style type="text/css">
	.st0{fill:#F2E3D0;}
</style>
<g id="Layer_3">
</g>
<g id="Layer_1">
</g>
<g id="Layer_2">
	<path class="st0" d="M324.6,37.4c-10.3,0-19.4,5.1-25,13c-5.5-7.8-14.7-13-25-13C257.7,37.4,244,51.2,244,68
		c0,16.9,13.7,30.6,30.6,30.6c6,0,11.6-1.7,16.3-4.7v34.7h17.3V93.9c4.7,3,10.3,4.7,16.3,4.7c16.9,0,30.6-13.7,30.6-30.6
		C355.2,51.2,341.4,37.4,324.6,37.4z M274.6,87.4c-10.7,0-19.4-8.7-19.4-19.4c0-10.7,8.7-19.4,19.4-19.4c10.7,0,19.4,8.7,19.4,19.4
		C294,78.7,285.3,87.4,274.6,87.4z M324.6,87.4c-10.7,0-19.4-8.7-19.4-19.4c0-10.7,8.7-19.4,19.4-19.4s19.4,8.7,19.4,19.4
		C343.9,78.7,335.3,87.4,324.6,87.4z"/>
</g>
<g id="Layer_10">
</g>
<g id="Layer_4">
</g>
<g id="Layer_5">
</g>
<g id="Layer_6">
</g>
<g id="Layer_7">
</g>
<g id="Layer_8">
</g>
<g id="Layer_9">
</g>
</svg>
