<?xml version="1.0" encoding="utf-8"?>
<!-- Generator: Adobe Illustrator 19.0.0, SVG Export Plug-In . SVG Version: 6.00 Build 0)  -->
<svg version="1.1" xmlns="http://www.w3.org/2000/svg" xmlns:xlink="http://www.w3.org/1999/xlink" x="0px" y="0px"
	 viewBox="0 0 595.3 504.3" style="enable-background:new 0 0 595.3 504.3;" xml:space="preserve">
<style type="text/css">
	.st0{enable-background:new    ;}
	.st1{clip-path:url(#XMLID_17_);}
	.st2{fill:#F1E3D0;}
</style>
<g id="Layer_3">
</g>
<g id="Layer_1">
</g>
<g id="Layer_2">
	<g>
		<g id="XMLID_42_">
			<g id="XMLID_55_" class="st0">
				<defs>
					<rect id="XMLID_76_" x="271.8" y="37.4" class="st0" width="55.6" height="91.1"/>
				</defs>
				<clipPath id="XMLID_17_">
					<use xlink:href="#XMLID_76_"  style="overflow:visible;"/>
				</clipPath>
				<g id="XMLID_57_" class="st1">
					<g id="XMLID_58_">
						<g id="XMLID_59_">
							<g id="XMLID_60_">
								<path id="XMLID_72_" class="st2" d="M287.1,87.4c-5.3,0-9.7-8.7-9.7-19.4c0-10.7,4.3-19.4,9.7-19.4c5.3,0,9.7,8.7,9.7,19.4
									C296.8,78.7,292.4,87.4,287.1,87.4 M312.1,87.4c-5.3,0-9.7-8.7-9.7-19.4c0-10.7,4.3-19.4,9.7-19.4c5.3,0,9.7,8.7,9.7,19.4
									C321.8,78.7,317.4,87.4,312.1,87.4 M312.1,37.4c-5.2,0-9.7,5.1-12.5,13c-2.8-7.8-7.3-13-12.5-13c-8.4,0-15.3,13.7-15.3,30.6
									s6.9,30.6,15.3,30.6c3,0,5.8-1.7,8.2-4.8v34.7h8.6V93.9c2.4,3,5.2,4.8,8.2,4.8c8.4,0,15.3-13.7,15.3-30.6
									S320.5,37.4,312.1,37.4"/>
							</g>
						</g>
					</g>
				</g>
			</g>
		</g>
	</g>
</g>
<g id="Layer_10">
</g>
<g id="Layer_4">
</g>
<g id="Layer_5">
</g>
<g id="Layer_6">
</g>
<g id="Layer_7">
</g>
<g id="Layer_8">
</g>
<g id="Layer_9">
</g>
</svg>
