<?xml version="1.0" encoding="utf-8"?>
<!-- Generator: Adobe Illustrator 19.0.0, SVG Export Plug-In . SVG Version: 6.00 Build 0)  -->
<svg version="1.1" xmlns="http://www.w3.org/2000/svg" xmlns:xlink="http://www.w3.org/1999/xlink" x="0px" y="0px"
	 viewBox="0 0 595.3 504.3" style="enable-background:new 0 0 595.3 504.3;" xml:space="preserve">
<style type="text/css">
	.st0{enable-background:new    ;}
	.st1{clip-path:url(#XMLID_17_);}
	.st2{fill:#F1E3D0;}
</style>
<g id="Layer_3">
</g>
<g id="Layer_1">
</g>
<g id="Layer_2">
	<g>
		<g id="XMLID_42_">
			<g id="XMLID_55_" class="st0">
				<defs>
					<rect id="XMLID_76_" x="262.4" y="37.4" class="st0" width="74.4" height="91.1"/>
				</defs>
				<clipPath id="XMLID_17_">
					<use xlink:href="#XMLID_76_"  style="overflow:visible;"/>
				</clipPath>
				<g id="XMLID_57_" class="st1">
					<g id="XMLID_58_">
						<g id="XMLID_59_">
							<g id="XMLID_60_">
								<path id="XMLID_72_" class="st2" d="M282.9,87.4c-7.1,0-13-8.7-13-19.4c0-10.7,5.8-19.4,13-19.4c7.1,0,13,8.7,13,19.4
									C295.8,78.7,290,87.4,282.9,87.4 M316.3,87.4c-7.1,0-13-8.7-13-19.4c0-10.7,5.8-19.4,13-19.4c7.1,0,13,8.7,13,19.4
									C329.3,78.7,323.5,87.4,316.3,87.4 M316.3,37.4c-6.9,0-13,5.1-16.7,13c-3.7-7.8-9.8-13-16.7-13c-11.3,0-20.5,13.7-20.5,30.6
									s9.2,30.6,20.5,30.6c4,0,7.8-1.7,10.9-4.8v34.7h11.6V93.9c3.2,3,6.9,4.8,10.9,4.8c11.3,0,20.5-13.7,20.5-30.6
									S327.6,37.4,316.3,37.4"/>
							</g>
						</g>
					</g>
				</g>
			</g>
		</g>
	</g>
</g>
<g id="Layer_10">
</g>
<g id="Layer_4">
</g>
<g id="Layer_5">
</g>
<g id="Layer_6">
</g>
<g id="Layer_7">
</g>
<g id="Layer_8">
</g>
<g id="Layer_9">
</g>
</svg>
