<?xml version="1.0" encoding="utf-8"?>
<!-- Generator: Adobe Illustrator 19.0.0, SVG Export Plug-In . SVG Version: 6.00 Build 0)  -->
<svg version="1.1" xmlns="http://www.w3.org/2000/svg" xmlns:xlink="http://www.w3.org/1999/xlink" x="0px" y="0px"
	 viewBox="0 0 595.3 504.3" style="enable-background:new 0 0 595.3 504.3;" xml:space="preserve">
<style type="text/css">
	.st0{enable-background:new    ;}
	.st1{clip-path:url(#XMLID_17_);}
	.st2{fill:#F1E3D0;}
</style>
<g id="Layer_3">
</g>
<g id="Layer_1">
</g>
<g id="Layer_2">
	<g>
		<g id="XMLID_42_">
			<g id="XMLID_55_" class="st0">
				<defs>
					<rect id="XMLID_76_" x="282.4" y="37.4" class="st0" width="34.3" height="91.1"/>
				</defs>
				<clipPath id="XMLID_17_">
					<use xlink:href="#XMLID_76_"  style="overflow:visible;"/>
				</clipPath>
				<g id="XMLID_57_" class="st1">
					<g id="XMLID_58_">
						<g id="XMLID_59_">
							<g id="XMLID_60_">
								<path id="XMLID_72_" class="st2" d="M291.9,87.4c-3.3,0-6-8.7-6-19.4c0-10.7,2.7-19.4,6-19.4c3.3,0,6,8.7,6,19.4
									C297.9,78.7,295.2,87.4,291.9,87.4 M307.3,87.4c-3.3,0-6-8.7-6-19.4c0-10.7,2.7-19.4,6-19.4c3.3,0,6,8.7,6,19.4
									C313.3,78.7,310.6,87.4,307.3,87.4 M307.3,37.4c-3.2,0-6,5.1-7.7,13c-1.7-7.8-4.5-13-7.7-13c-5.2,0-9.5,13.7-9.5,30.6
									s4.2,30.6,9.5,30.6c1.9,0,3.6-1.7,5-4.8v34.7h5.3V93.9c1.5,3,3.2,4.8,5.1,4.8c5.2,0,9.5-13.7,9.5-30.6
									S312.5,37.4,307.3,37.4"/>
							</g>
						</g>
					</g>
				</g>
			</g>
		</g>
	</g>
</g>
<g id="Layer_10">
</g>
<g id="Layer_4">
</g>
<g id="Layer_5">
</g>
<g id="Layer_6">
</g>
<g id="Layer_7">
</g>
<g id="Layer_8">
</g>
<g id="Layer_9">
</g>
</svg>
