<?xml version="1.0" encoding="utf-8"?>
<!-- Generator: Adobe Illustrator 19.0.0, SVG Export Plug-In . SVG Version: 6.00 Build 0)  -->
<svg version="1.1" xmlns="http://www.w3.org/2000/svg" xmlns:xlink="http://www.w3.org/1999/xlink" x="0px" y="0px"
	 viewBox="0 0 595.3 504.3" style="enable-background:new 0 0 595.3 504.3;" xml:space="preserve">
<style type="text/css">
	.st0{enable-background:new    ;}
	.st1{clip-path:url(#XMLID_17_);}
	.st2{fill:#F1E3D0;}
</style>
<g id="Layer_3">
</g>
<g id="Layer_1">
</g>
<g id="Layer_2">
	<g>
		<g id="XMLID_42_">
			<g id="XMLID_55_" class="st0">
				<defs>
					<rect id="XMLID_76_" x="293.8" y="37.4" class="st0" width="11.6" height="91.1"/>
				</defs>
				<clipPath id="XMLID_17_">
					<use xlink:href="#XMLID_76_"  style="overflow:visible;"/>
				</clipPath>
				<g id="XMLID_57_" class="st1">
					<g id="XMLID_58_">
						<g id="XMLID_59_">
							<g id="XMLID_60_">
								<path id="XMLID_72_" class="st2" d="M297,87.4c-1.1,0-2-8.7-2-19.4c0-10.7,0.9-19.4,2-19.4c1.1,0,2,8.7,2,19.4
									C299,78.7,298.1,87.4,297,87.4 M302.2,87.4c-1.1,0-2-8.7-2-19.4c0-10.7,0.9-19.4,2-19.4c1.1,0,2,8.7,2,19.4
									C304.2,78.7,303.3,87.4,302.2,87.4 M302.2,37.4c-1.1,0-2,5.1-2.6,13c-0.6-7.8-1.5-13-2.6-13c-1.8,0-3.2,13.7-3.2,30.6
									s1.4,30.6,3.2,30.6c0.6,0,1.2-1.7,1.7-4.8v34.7h1.8V93.9c0.5,3,1.1,4.8,1.7,4.8c1.8,0,3.2-13.7,3.2-30.6
									S304,37.4,302.2,37.4"/>
							</g>
						</g>
					</g>
				</g>
			</g>
		</g>
	</g>
</g>
<g id="Layer_10">
</g>
<g id="Layer_4">
</g>
<g id="Layer_5">
</g>
<g id="Layer_6">
</g>
<g id="Layer_7">
</g>
<g id="Layer_8">
</g>
<g id="Layer_9">
</g>
</svg>
