<?xml version="1.0" encoding="utf-8"?>
<!-- Generator: Adobe Illustrator 19.0.0, SVG Export Plug-In . SVG Version: 6.00 Build 0)  -->
<svg version="1.1" xmlns="http://www.w3.org/2000/svg" xmlns:xlink="http://www.w3.org/1999/xlink" x="0px" y="0px"
	 viewBox="0 0 595.3 504.3" style="enable-background:new 0 0 595.3 504.3;" xml:space="preserve">
<style type="text/css">
	.st0{enable-background:new    ;}
	.st1{clip-path:url(#XMLID_17_);}
	.st2{fill:#F1E3D0;}
</style>
<g id="Layer_3">
</g>
<g id="Layer_1">
</g>
<g id="Layer_2">
	<g>
		<g id="XMLID_42_">
			<g id="XMLID_55_" class="st0">
				<defs>
					<rect id="XMLID_76_" x="248.8" y="37.4" class="st0" width="101.5" height="91.1"/>
				</defs>
				<clipPath id="XMLID_17_">
					<use xlink:href="#XMLID_76_"  style="overflow:visible;"/>
				</clipPath>
				<g id="XMLID_57_" class="st1">
					<g id="XMLID_58_">
						<g id="XMLID_59_">
							<g id="XMLID_60_">
								<path id="XMLID_72_" class="st2" d="M276.8,87.4c-9.8,0-17.7-8.7-17.7-19.4c0-10.7,7.9-19.4,17.7-19.4
									c9.8,0,17.7,8.7,17.7,19.4C294.5,78.7,286.5,87.4,276.8,87.4 M322.4,87.4c-9.8,0-17.7-8.7-17.7-19.4
									c0-10.7,7.9-19.4,17.7-19.4c9.8,0,17.7,8.7,17.7,19.4C340.1,78.7,332.2,87.4,322.4,87.4 M322.4,37.4
									c-9.4,0-17.8,5.1-22.8,13c-5.1-7.8-13.4-13-22.8-13c-15.4,0-27.9,13.7-27.9,30.6s12.5,30.6,27.9,30.6
									c5.5,0,10.6-1.7,14.9-4.8v34.7h15.8V93.9c4.3,3,9.4,4.8,14.9,4.8c15.4,0,27.9-13.7,27.9-30.6S337.8,37.4,322.4,37.4"/>
							</g>
						</g>
					</g>
				</g>
			</g>
		</g>
	</g>
</g>
<g id="Layer_10">
</g>
<g id="Layer_4">
</g>
<g id="Layer_5">
</g>
<g id="Layer_6">
</g>
<g id="Layer_7">
</g>
<g id="Layer_8">
</g>
<g id="Layer_9">
</g>
</svg>
