<?xml version="1.0" encoding="utf-8"?>
<!-- Generator: Adobe Illustrator 19.0.0, SVG Export Plug-In . SVG Version: 6.00 Build 0)  -->
<svg version="1.1" xmlns="http://www.w3.org/2000/svg" xmlns:xlink="http://www.w3.org/1999/xlink" x="0px" y="0px"
	 viewBox="0 0 595.3 504.3" style="enable-background:new 0 0 595.3 504.3;" xml:space="preserve">
<style type="text/css">
	.st0{enable-background:new    ;}
	.st1{clip-path:url(#XMLID_17_);}
	.st2{fill:#F1E3D0;}
</style>
<g id="Layer_3">
</g>
<g id="Layer_1">
</g>
<g id="Layer_2">
	<g>
		<g id="XMLID_27_">
			<g id="XMLID_40_" class="st0">
				<defs>
					<rect id="XMLID_61_" x="245.2" y="37.4" class="st0" width="108.7" height="91.1"/>
				</defs>
				<clipPath id="XMLID_17_">
					<use xlink:href="#XMLID_61_"  style="overflow:visible;"/>
				</clipPath>
				<g id="XMLID_42_" class="st1">
					<g id="XMLID_43_">
						<g id="XMLID_44_">
							<g id="XMLID_45_">
								<path id="XMLID_57_" class="st2" d="M275.2,87.4c-10.4,0-18.9-8.7-18.9-19.4c0-10.7,8.5-19.4,18.9-19.4
									c10.4,0,18.9,8.7,18.9,19.4C294.1,78.7,285.6,87.4,275.2,87.4 M324,87.4c-10.4,0-18.9-8.7-18.9-19.4
									c0-10.7,8.5-19.4,18.9-19.4c10.4,0,18.9,8.7,18.9,19.4C343,78.7,334.5,87.4,324,87.4 M324,37.4c-10.1,0-19,5.1-24.4,13
									c-5.4-7.8-14.3-13-24.4-13c-16.5,0-29.9,13.7-29.9,30.6s13.4,30.6,29.9,30.6c5.9,0,11.4-1.7,16-4.8v34.7H308V93.9
									c4.6,3,10.1,4.8,16,4.8c16.5,0,29.9-13.7,29.9-30.6S340.5,37.4,324,37.4"/>
							</g>
						</g>
					</g>
				</g>
			</g>
		</g>
	</g>
</g>
<g id="Layer_10">
</g>
<g id="Layer_4">
</g>
<g id="Layer_5">
</g>
<g id="Layer_6">
</g>
<g id="Layer_7">
</g>
<g id="Layer_8">
</g>
<g id="Layer_9">
</g>
</svg>
